<mxfile host="app.diagrams.net" agent="Mozilla/5.0 (Windows NT 10.0; Win64; x64) AppleWebKit/537.36 (KHTML, like Gecko) Chrome/131.0.0.0 Safari/537.36" version="24.9.1">
  <diagram name="Page-1" id="q2uFFpw6A81g-2KVfSTK">
    <mxGraphModel dx="1050" dy="653" grid="1" gridSize="10" guides="1" tooltips="1" connect="1" arrows="1" fold="1" page="1" pageScale="1" pageWidth="850" pageHeight="1100" math="0" shadow="0">
      <root>
        <mxCell id="0" />
        <mxCell id="1" parent="0" />
        <mxCell id="lY29EebwksP_RlhY7hUK-5" style="edgeStyle=orthogonalEdgeStyle;rounded=0;orthogonalLoop=1;jettySize=auto;html=1;entryX=0.5;entryY=1;entryDx=0;entryDy=0;" parent="1" source="lY29EebwksP_RlhY7hUK-2" target="lY29EebwksP_RlhY7hUK-3" edge="1">
          <mxGeometry relative="1" as="geometry">
            <mxPoint x="410" y="350" as="targetPoint" />
          </mxGeometry>
        </mxCell>
        <mxCell id="lY29EebwksP_RlhY7hUK-2" value="Android" style="rounded=0;whiteSpace=wrap;html=1;" parent="1" vertex="1">
          <mxGeometry x="50" y="540" width="730" height="50" as="geometry" />
        </mxCell>
        <mxCell id="I_qgogvCm689zmonn_Se-12" style="edgeStyle=orthogonalEdgeStyle;rounded=0;orthogonalLoop=1;jettySize=auto;html=1;exitX=0.5;exitY=0;exitDx=0;exitDy=0;entryX=0.5;entryY=1;entryDx=0;entryDy=0;" edge="1" parent="1" source="lY29EebwksP_RlhY7hUK-3" target="I_qgogvCm689zmonn_Se-11">
          <mxGeometry relative="1" as="geometry" />
        </mxCell>
        <mxCell id="lY29EebwksP_RlhY7hUK-3" value="Termux app" style="rounded=0;whiteSpace=wrap;html=1;" parent="1" vertex="1">
          <mxGeometry x="50" y="410" width="730" height="50" as="geometry" />
        </mxCell>
        <mxCell id="lY29EebwksP_RlhY7hUK-9" style="edgeStyle=orthogonalEdgeStyle;rounded=0;orthogonalLoop=1;jettySize=auto;html=1;exitX=0.5;exitY=0;exitDx=0;exitDy=0;entryX=0.5;entryY=1;entryDx=0;entryDy=0;" parent="1" source="lY29EebwksP_RlhY7hUK-6" target="lY29EebwksP_RlhY7hUK-8" edge="1">
          <mxGeometry relative="1" as="geometry" />
        </mxCell>
        <mxCell id="lY29EebwksP_RlhY7hUK-6" value="Alpine" style="rounded=0;whiteSpace=wrap;html=1;" parent="1" vertex="1">
          <mxGeometry x="50" y="170" width="730" height="80" as="geometry" />
        </mxCell>
        <mxCell id="lY29EebwksP_RlhY7hUK-8" value="docker, Azure SQL Edge" style="rounded=0;whiteSpace=wrap;html=1;" parent="1" vertex="1">
          <mxGeometry x="50" y="80" width="730" height="40" as="geometry" />
        </mxCell>
        <mxCell id="lY29EebwksP_RlhY7hUK-10" style="edgeStyle=orthogonalEdgeStyle;rounded=0;orthogonalLoop=1;jettySize=auto;html=1;exitX=0.5;exitY=1;exitDx=0;exitDy=0;" parent="1" source="lY29EebwksP_RlhY7hUK-2" target="lY29EebwksP_RlhY7hUK-2" edge="1">
          <mxGeometry relative="1" as="geometry" />
        </mxCell>
        <mxCell id="9H2rqrs96JmcYUF9J7Ho-2" value="MicroSD" style="rounded=1;whiteSpace=wrap;html=1;" parent="1" vertex="1">
          <mxGeometry x="565" y="550" width="80" height="30" as="geometry" />
        </mxCell>
        <mxCell id="I_qgogvCm689zmonn_Se-1" style="edgeStyle=orthogonalEdgeStyle;rounded=0;orthogonalLoop=1;jettySize=auto;html=1;entryX=0.5;entryY=1;entryDx=0;entryDy=0;" edge="1" parent="1" source="9H2rqrs96JmcYUF9J7Ho-2" target="I_qgogvCm689zmonn_Se-5">
          <mxGeometry relative="1" as="geometry" />
        </mxCell>
        <mxCell id="I_qgogvCm689zmonn_Se-3" value="termux-setup-storage" style="edgeLabel;html=1;align=center;verticalAlign=middle;resizable=0;points=[];" vertex="1" connectable="0" parent="I_qgogvCm689zmonn_Se-1">
          <mxGeometry x="0.2534" y="-3" relative="1" as="geometry">
            <mxPoint y="16" as="offset" />
          </mxGeometry>
        </mxCell>
        <mxCell id="I_qgogvCm689zmonn_Se-5" value="myfiles on MicroSD" style="rounded=1;whiteSpace=wrap;html=1;" vertex="1" parent="1">
          <mxGeometry x="542.5" y="420" width="125" height="25" as="geometry" />
        </mxCell>
        <mxCell id="I_qgogvCm689zmonn_Se-13" style="edgeStyle=orthogonalEdgeStyle;rounded=0;orthogonalLoop=1;jettySize=auto;html=1;exitX=0.5;exitY=0;exitDx=0;exitDy=0;entryX=0.5;entryY=1;entryDx=0;entryDy=0;" edge="1" parent="1" source="I_qgogvCm689zmonn_Se-11" target="lY29EebwksP_RlhY7hUK-6">
          <mxGeometry relative="1" as="geometry" />
        </mxCell>
        <mxCell id="I_qgogvCm689zmonn_Se-11" value="QEMU" style="rounded=0;whiteSpace=wrap;html=1;" vertex="1" parent="1">
          <mxGeometry x="50" y="290" width="730" height="40" as="geometry" />
        </mxCell>
        <mxCell id="I_qgogvCm689zmonn_Se-7" value="virtio, 9p server" style="rounded=1;whiteSpace=wrap;html=1;" vertex="1" parent="1">
          <mxGeometry x="490" y="195" width="230" height="30" as="geometry" />
        </mxCell>
      </root>
    </mxGraphModel>
  </diagram>
</mxfile>
